<?xml version="1.0" standalone="no"?>
<!DOCTYPE svg PUBLIC "-//W3C//DTD SVG 20010904//EN"
 "http://www.w3.org/TR/2001/REC-SVG-20010904/DTD/svg10.dtd">
<svg version="1.0" xmlns="http://www.w3.org/2000/svg"
 width="1881.000000pt" height="3648.000000pt" viewBox="0 0 1881.000000 3648.000000"
 preserveAspectRatio="xMidYMid meet">

<g transform="translate(0.000000,3648.000000) scale(0.100000,-0.100000)"
fill="#000000" stroke="none">
<path d="M0 29248 l0 -7233 24 51 c30 65 50 77 256 154 746 282 1438 690 2088
1233 79 66 146 125 149 132 2 7 -5 170 -16 362 -141 2377 -143 4348 -5 6168
75 995 216 2121 374 2990 233 1276 598 2113 1170 2685 383 383 820 608 1315
679 34 5 -1101 9 -2647 10 l-2708 1 0 -7232z"/>
<path d="M5864 36464 c340 -53 617 -195 866 -444 223 -222 370 -468 490 -817
231 -669 261 -1653 84 -2793 -250 -1617 -745 -3360 -1382 -4866 -588 -1390
-1360 -2581 -2322 -3585 l-178 -186 29 -424 c66 -972 149 -1986 314 -3844 194
-2171 205 -2306 291 -3350 l6 -79 93 269 c252 737 513 1353 881 2085 665 1322
1432 2447 2335 3425 454 491 1179 1150 1328 1206 218 82 461 -72 461 -291 0
-114 -16 -137 -318 -448 -1254 -1294 -2008 -2272 -2731 -3542 -198 -347 -228
-407 -213 -427 43 -60 83 -165 97 -253 8 -52 19 -111 25 -130 5 -19 37 -177
71 -350 146 -760 345 -1625 549 -2390 81 -301 412 -1468 500 -1760 320 -1062
663 -1727 1113 -2155 231 -221 470 -362 728 -429 259 -67 551 -62 838 15 626
167 1198 647 1587 1334 306 540 522 1191 754 2275 47 216 67 266 133 327 176
163 488 146 592 -31 31 -53 257 -600 383 -926 332 -864 627 -1784 828 -2586
31 -126 58 -230 60 -232 1 -2 96 75 212 171 1026 852 2139 1680 3302 2456 536
357 633 418 699 438 158 46 345 -59 417 -234 l24 -58 0 11323 0 11322 -6517
-1 c-5580 -1 -6505 -3 -6429 -15z m6069 -17959 c164 -43 279 -158 322 -320 17
-67 20 -218 4 -285 -39 -168 -182 -308 -349 -340 -319 -60 -570 149 -570 475
0 232 129 415 331 469 71 19 191 20 262 1z"/>
<path d="M5530 35664 c-249 -45 -450 -124 -639 -254 -273 -187 -487 -448 -677
-825 -146 -291 -250 -582 -348 -971 -196 -785 -387 -2162 -481 -3469 -94
-1324 -114 -2922 -55 -4545 13 -361 50 -1123 54 -1127 9 -10 324 392 495 632
354 495 645 985 950 1595 619 1242 1089 2643 1485 4435 216 974 307 1633 323
2335 27 1254 -255 2029 -792 2175 -58 16 -264 28 -315 19z"/>
<path d="M2460 22953 c-344 -264 -800 -544 -1250 -767 -283 -140 -465 -219
-743 -323 -234 -87 -280 -98 -334 -84 -47 13 -100 65 -118 117 -12 33 -14
-1586 -15 -10928 l0 -10968 5248 1 c3078 1 5206 5 5148 11 -239 21 -477 88
-701 197 -228 112 -386 224 -579 411 -462 448 -734 1012 -822 1705 -25 192
-25 601 0 810 78 670 323 1356 779 2175 511 920 1394 2107 2347 3155 506 556
1205 1243 1881 1848 l176 157 -43 188 c-134 586 -303 1199 -500 1812 -86 266
-253 751 -263 762 -4 5 -27 -61 -50 -145 -130 -452 -314 -915 -498 -1254 -198
-362 -392 -629 -648 -892 -521 -534 -1138 -860 -1820 -963 -136 -20 -512 -17
-650 5 -545 89 -1002 322 -1408 717 -320 310 -546 629 -781 1099 -347 692
-604 1509 -950 3011 -175 762 -384 1808 -472 2368 -10 61 -21 112 -24 112 -14
0 -258 -605 -373 -925 -340 -947 -577 -1877 -732 -2875 l-37 -235 13 -545 c13
-577 7 -1658 -10 -2100 -29 -695 -42 -875 -71 -952 -62 -166 -195 -264 -376
-275 -137 -9 -244 28 -339 118 -100 95 -128 178 -145 429 -49 766 -51 1572 -4
2235 21 282 12 717 -31 1700 -64 1425 -154 2655 -415 5620 -140 1595 -206
2391 -265 3183 -14 188 -25 344 -25 347 0 12 -21 -1 -100 -62z"/>
<path d="M18795 13661 c-3 -16 -22 -48 -42 -71 -52 -60 -423 -347 -1563 -1205
-1195 -900 -1579 -1194 -2130 -1634 -232 -184 -658 -531 -702 -570 -4 -4 10
-106 33 -226 115 -630 201 -1302 244 -1900 52 -734 52 -1521 0 -2190 -101
-1296 -414 -2476 -920 -3470 -577 -1132 -1343 -1895 -2239 -2229 -205 -77
-474 -139 -674 -155 -53 -5 1727 -9 3956 -10 l4052 -1 0 6845 c0 3765 -2 6845
-4 6845 -3 0 -7 -13 -11 -29z"/>
<path d="M13460 9398 c-1102 -1014 -1940 -1926 -2685 -2923 -880 -1177 -1314
-1939 -1578 -2770 -61 -190 -103 -381 -133 -600 -22 -162 -25 -552 -5 -695 72
-518 265 -923 587 -1230 284 -271 579 -393 944 -393 181 0 331 26 522 90 960
318 1789 1333 2283 2794 258 764 397 1499 467 2474 17 238 17 1248 0 1520 -39
616 -91 1114 -172 1655 -34 223 -38 240 -48 240 -4 -1 -86 -73 -182 -162z"/>
</g>
</svg>
